<?xml version="1.0" standalone="no"?>
<!DOCTYPE svg PUBLIC "-//W3C//DTD SVG 20010904//EN"
 "http://www.w3.org/TR/2001/REC-SVG-20010904/DTD/svg10.dtd">
<svg version="1.0" xmlns="http://www.w3.org/2000/svg"
 width="225.000000pt" height="225.000000pt" viewBox="0 0 225.000000 225.000000"
 preserveAspectRatio="xMidYMid meet">
<metadata>
Created by potrace 1.14, written by Peter Selinger 2001-2017
</metadata>
<g transform="translate(0.000000,225.000000) scale(0.100000,-0.100000)"
fill="#000000" stroke="none">
<path d="M976 2169 c-103 -15 -208 -48 -311 -98 -281 -137 -480 -381 -562
-689 -23 -85 -26 -117 -26 -257 0 -140 3 -172 26 -257 81 -305 277 -548 552
-683 129 -64 218 -90 362 -107 306 -35 629 80 852 303 360 360 411 924 121
1343 -224 325 -627 501 -1014 445z m161 -889 l203 -355 0 358 0 357 100 0 100
0 0 -515 0 -516 -107 3 -108 3 -205 357 -205 356 -3 -359 -2 -359 -100 0 -100
0 0 515 0 516 113 -3 112 -3 202 -355z"/>
</g>
</svg>
